# xmcd
#
# Track frame offsets: 
#        150
#        12348
#        24665
#        37486
#        49554
#        61115
#        73354
#        83975
#        96171
#        106320
#        117373
#        128235
#        140241
#        152781
#        163080
#        173916
#        185324
#        196955
#        207578
#        218714
#
# Disc length: 3085 seconds
#
# Revision: 1
# Processed by: cddbd v1.5.2PL0 Copyright (c) Steve Scherf et al.
# Submitted via: ExactAudioCopy v1.3
#
DISCID=2e0c0b14
DTITLE=Don Gibson - 80 Original Hits And Rarities_CD1
DYEAR=1900
DGENRE=Country
TTITLE0=Automatic Mama
TTITLE1=Why Am I So Lonely
TTITLE2=I Love No One But You
TTITLE3=Roses Are Red
TTITLE4=Just Let Me Love You
TTITLE5=Red Lips, White Lies And Blue Hours
TTITLE6=Dark Future
TTITLE7=No Shoulder To Cry On
TTITLE8=We're Steppin' Out Tonight
TTITLE9=A Blue Million Tears
TTITLE10=Walkin' In The Moonlight
TTITLE11=You Cast Me Out
TTITLE12=Waitin' Down The Road
TTITLE13=I Just Love The Way You Tell A Lie
TTITLE14=Sample Kisses
TTITLE15=Let Me Stay In Your Arms
TTITLE16=Many Times I've Waited
TTITLE17=Selfish With Your Kisses
TTITLE18=Ice Cold Heart
TTITLE19=Symptoms Of Love
EXTD=
EXTT0=
EXTT1=
EXTT2=
EXTT3=
EXTT4=
EXTT5=
EXTT6=
EXTT7=
EXTT8=
EXTT9=
EXTT10=
EXTT11=
EXTT12=
EXTT13=
EXTT14=
EXTT15=
EXTT16=
EXTT17=
EXTT18=
EXTT19=
PLAYORDER=
